<svg width="61" height="36" viewBox="0 0 61 36" fill="none" xmlns="http://www.w3.org/2000/svg">
<path d="M16.5938 3.89844L5.29688 35H0.679688L13.6875 0.875H16.6641L16.5938 3.89844ZM26.0625 35L14.7422 3.89844L14.6719 0.875H17.6484L30.7031 35H26.0625ZM25.4766 22.3672V26.0703H6.30469V22.3672H25.4766ZM55.5938 24.1484H60.0938C59.8594 26.3047 59.2422 28.2344 58.2422 29.9375C57.2422 31.6406 55.8281 32.9922 54 33.9922C52.1719 34.9766 49.8906 35.4688 47.1562 35.4688C45.1562 35.4688 43.3359 35.0938 41.6953 34.3438C40.0703 33.5938 38.6719 32.5312 37.5 31.1562C36.3281 29.7656 35.4219 28.1016 34.7812 26.1641C34.1562 24.2109 33.8438 22.0391 33.8438 19.6484V16.25C33.8438 13.8594 34.1562 11.6953 34.7812 9.75781C35.4219 7.80469 36.3359 6.13281 37.5234 4.74219C38.7266 3.35156 40.1719 2.28125 41.8594 1.53125C43.5469 0.78125 45.4453 0.40625 47.5547 0.40625C50.1328 0.40625 52.3125 0.890625 54.0938 1.85938C55.875 2.82812 57.2578 4.17188 58.2422 5.89062C59.2422 7.59375 59.8594 9.57031 60.0938 11.8203H55.5938C55.375 10.2266 54.9688 8.85938 54.375 7.71875C53.7812 6.5625 52.9375 5.67188 51.8438 5.04688C50.75 4.42187 49.3203 4.10938 47.5547 4.10938C46.0391 4.10938 44.7031 4.39844 43.5469 4.97656C42.4062 5.55469 41.4453 6.375 40.6641 7.4375C39.8984 8.5 39.3203 9.77344 38.9297 11.2578C38.5391 12.7422 38.3438 14.3906 38.3438 16.2031V19.6484C38.3438 21.3203 38.5156 22.8906 38.8594 24.3594C39.2188 25.8281 39.7578 27.1172 40.4766 28.2266C41.1953 29.3359 42.1094 30.2109 43.2188 30.8516C44.3281 31.4766 45.6406 31.7891 47.1562 31.7891C49.0781 31.7891 50.6094 31.4844 51.75 30.875C52.8906 30.2656 53.75 29.3906 54.3281 28.25C54.9219 27.1094 55.3438 25.7422 55.5938 24.1484Z" fill="#1B1B1E"/>
</svg>
