<svg width="29" height="30" viewBox="0 0 29 30" fill="none" xmlns="http://www.w3.org/2000/svg">
<path d="M26.6786 12.4869H2.32146C1.09738 12.4869 0.107178 13.4763 0.107178 14.6371C0.107178 15.7979 1.09738 16.8495 2.32146 16.8495H26.6786C27.9027 16.8495 28.8929 15.8601 28.8929 14.6371C28.8929 13.414 27.9034 12.4869 26.6786 12.4869ZM14.5 6.95585C16.3317 6.95585 17.8215 5.46731 17.8215 3.63723C17.8215 1.80714 16.3317 0.318604 14.5 0.318604C12.6684 0.318604 11.1786 1.80714 11.1786 3.63723C11.1786 5.46731 12.6663 6.95585 14.5 6.95585ZM14.5 22.4428C12.6684 22.4428 11.1786 23.9313 11.1786 25.7614C11.1786 27.5915 12.6684 29.08 14.5 29.08C16.3317 29.08 17.8215 27.5915 17.8215 25.7614C17.8215 23.9313 16.3337 22.4428 14.5 22.4428Z" fill="#30B043"/>
</svg>
