<svg width="22" height="22" viewBox="0 0 22 22" fill="none" xmlns="http://www.w3.org/2000/svg">
<path d="M14.1038 11.004L21.3434 3.76436C21.5503 3.56092 21.7148 3.31856 21.8274 3.05123C21.9401 2.78391 21.9988 2.49692 22 2.20683C22.0012 1.91673 21.945 1.62926 21.8345 1.361C21.7241 1.09274 21.5616 0.849008 21.3565 0.643851C21.1514 0.438694 20.9077 0.276177 20.6395 0.165675C20.3712 0.0551719 20.0838 -0.00112976 19.7937 1.7177e-05C19.5036 0.00116412 19.2166 0.0597371 18.9492 0.172357C18.6819 0.284978 18.4395 0.449416 18.236 0.656188L10.9963 7.89588L3.75663 0.656921C3.55255 0.452836 3.31026 0.290947 3.04361 0.180497C2.77696 0.0700465 2.49117 0.0131984 2.20255 0.0131984C1.91393 0.0131984 1.62813 0.0700465 1.36148 0.180497C1.09483 0.290947 0.85255 0.452836 0.648465 0.656921C0.236297 1.06909 0.00474292 1.62811 0.00474292 2.211C0.00474292 2.7939 0.236297 3.35292 0.648465 3.76509L7.88815 11.004L0.630884 18.2613C0.224343 18.6746 -0.00240941 19.2318 1.9311e-05 19.8116C0.00244804 20.3913 0.233861 20.9466 0.643851 21.3565C1.05384 21.7664 1.60919 21.9977 2.18893 22C2.76867 22.0023 3.32583 21.7754 3.73905 21.3688L10.9956 14.1122L18.2345 21.3512C18.6638 21.7804 19.2264 21.9951 19.7883 21.9951C20.3501 21.9951 20.9127 21.7804 21.342 21.3512C21.5461 21.1472 21.7081 20.905 21.8186 20.6384C21.9291 20.3718 21.986 20.086 21.986 19.7975C21.986 19.5089 21.9291 19.2231 21.8186 18.9565C21.7081 18.6899 21.5461 18.4477 21.342 18.2437L14.1038 11.004Z" fill="#30B043"/>
</svg>
